The Polar Express (2004)

 


Verenigde Staten
Animatie / Familie
100 minuten

geregisseerd door Robert Zemeckis
met de stemmen van Tom Hanks, Daryl Sabara en Michael Jeter

Een jongen die twijfelt aan het bestaan van de Kerstman, komt in een fantasiereis naar de Noordpool terecht op een magische trein. Daar zal hij de Kerstman persoonlijk mogen ontmoeten, samen met enkele andere kinderen.


English

This is the story of a young hero boy on Christmas Eve who boards on a powerful magical train that's headed to the North Pole and Santa Claus's home. What unfolds is an an adventure which follows a doubting boy, who takes an extraordinary train ride to the North Pole; during this ride, he embarks on a journey of self-discovery which shows him that the wonder of life never fades for those who believe.


audio : Dutch
bron : dvd

Format                           : AVI
Format/Info                      : Audio Video Interleave
File size                        : 917 MiB
Duration                         : 1h 35mn
Overall bit rate                 : 1 338 Kbps
Writing application              : Lavf51.12.1

Video
ID                               : 0
Format                           : MPEG-4 Visual
Format profile                   : Simple@L1
Format settings, BVOP            : No
Format settings, QPel            : No
Format settings, GMC             : No warppoints
Format settings, Matrix          : Default (H.263)
Codec ID                         : DX50
Codec ID/Hint                    : DivX 5
Duration                         : 1h 35mn
Bit rate                         : 1 198 Kbps
Width                            : 720 pixels
Height                           : 576 pixels
Display aspect ratio             : 5/4
Frame rate                       : 25.000 fps
Standard                         : PAL
Resolution                       : 24 bits
Colorimetry                      : 4:2:0
Scan type                        : Progressive
Bits/(Pixel*Frame)               : 0.116
Stream size                      : 820 MiB (89%)
Writing library                  : Lavc51.40.4

Audio
ID                               : 1
Format                           : MPEG Audio
Format version                   : Version 1
Format profile                   : Layer 3
Codec ID                         : 55
Codec ID/Hint                    : MP3
Duration                         : 1h 35mn
Bit rate mode                    : Constant
Bit rate                         : 128 Kbps
Channel(s)                       : 2 channels
Sampling rate                    : 48.0 KHz
Resolution                       : 16 bits
Stream size                      : 87.7 MiB (10%)
Alignment                        : Aligned on interleaves
Interleave, duration             : 24 ms (0.60 video frame)
Interleave, preload duration     : 24 ms
Writing library                  : LAME3.97


Weblink : http://www.moviemeter.nl/film/14775
Weblink : http://www.imdb.com/title/tt0338348

***************************************** 

Brought to you by 
Pioen 
2Lions Team 



meer zien?? 
Kom dan eens kijken op ons forum 
    
http://www.2lions.ons-forum.nl 

2Lions-Team for all your Dutch MOVIES and more 

***************************************** 

DON T HIT AND RUN Niet gelijk afhaken als de film binnen is blijf seeden. 

Don`t quit after you finished the download, but keep seeding.